PathFileType	4	(X/Y/Z)	 s07c0001.trc
DataRate	CameraRate	NumFrames	NumMarkers	Units	OrigDataRate	OrigDataStartFrame	OrigNumFrames
200	200	7	49	mm	200	1251	2000
Frame#	Time	racr			lacr			c7			jug			rlel			rdr			llel			ldr			s2			lic			ric			lasi			rasi			rpsi			lpsi			rgt			lgt			rth1			rth2			rth3			rth4			rlfc			rmfc			rsh1			rsh2			rsh3			rsh4			rlmal			rmmal			rcal			rtoe			rmt5			rmt1			lth1			lth2			lth4			lth3			llfc			lmfc			lsh1			lsh2			lsh3			lsh4			llmal			lmmal			lcal			ltoe			lmt1			lmt5			
		X1	Y1	Z1	X2	Y2	Z2	X3	Y3	Z3	X4	Y4	Z4	X5	Y5	Z5	X6	Y6	Z6	X7	Y7	Z7	X8	Y8	Z8	X9	Y9	Z9	X10	Y10	Z10	X11	Y11	Z11	X12	Y12	Z12	X13	Y13	Z13	X14	Y14	Z14	X15	Y15	Z15	X16	Y16	Z16	X17	Y17	Z17	X18	Y18	Z18	X19	Y19	Z19	X20	Y20	Z20	X21	Y21	Z21	X22	Y22	Z22	X23	Y23	Z23	X24	Y24	Z24	X25	Y25	Z25	X26	Y26	Z26	X27	Y27	Z27	X28	Y28	Z28	X29	Y29	Z29	X30	Y30	Z30	X31	Y31	Z31	X32	Y32	Z32	X33	Y33	Z33	X34	Y34	Z34	X35	Y35	Z35	X36	Y36	Z36	X37	Y37	Z37	X38	Y38	Z38	X39	Y39	Z39	X40	Y40	Z40	X41	Y41	Z41	X42	Y42	Z42	X43	Y43	Z43	X44	Y44	Z44	X45	Y45	Z45	X46	Y46	Z46	X47	Y47	Z47	X48	Y48	Z48	X49	Y49	Z49	
1251	6.2550	181.515001	1569.105098	558.955180	209.391874	1568.268867	188.751325	148.760652	1607.604619	369.850341	270.615267	1516.794749	380.852387	248.138031	1224.604020	691.650145	398.270983	987.081700	804.674992	284.204140	1213.980340	92.634326	438.113845	975.098127	-9.554341	116.743807	1060.780612	362.834368	261.872105	1143.437984	226.914735	248.245162	1132.246917	531.048894	326.689318	1075.527309	260.166086	296.683136	1073.356949	523.543059	NaN	NaN	NaN	144.811308	1102.826538	307.534134	212.442151	976.191861	559.458185	245.208765	973.419071	209.550449	221.360730	847.440017	562.191443	244.416685	762.468348	554.813524	224.084194	679.526126	545.902250	280.734299	764.420494	547.144885	222.654803	538.039076	511.734917	231.792968	527.088825	416.118990	182.373600	400.524177	528.849432	199.449656	314.249609	509.198581	170.911510	232.739914	503.497863	222.764957	317.937927	476.761108	159.009888	91.813602	488.555420	200.969283	105.625362	410.904571	113.900789	41.323839	446.968395	395.393955	86.084343	505.287468	311.043427	36.210875	557.010969	328.186031	43.912737	449.520523	254.754096	855.875968	195.645669	277.520659	771.071657	203.191094	311.987759	771.926745	217.497231	253.937931	685.759037	211.170406	248.073701	531.122733	239.643835	242.225507	515.410602	327.591579	213.065304	396.160663	214.784425	229.499376	313.844849	236.294292	202.370483	226.909615	232.169495	239.614208	317.214849	276.409856	190.722817	91.029642	243.496696	225.078821	111.832335	324.686533	141.593474	37.538456	280.093570	423.158892	92.767649	249.165690	359.067274	47.643936	297.292514	345.341732	52.932363	191.979202	
1252	6.2600	181.548389	1569.103601	558.946347	209.445252	1568.280373	188.748453	148.797379	1607.622567	369.865663	270.659809	1516.799021	380.839707	248.156300	1224.620583	691.653218	398.292344	987.085098	804.682634	284.251101	1213.979191	92.630684	438.161123	975.105283	-9.549725	116.772337	1060.789419	362.834062	261.948388	1143.429084	226.917737	248.282819	1132.248433	531.054084	326.727797	1075.532733	260.135656	296.711853	1073.350594	523.554302	NaN	NaN	NaN	144.947353	1103.055969	307.440349	212.466896	976.188452	559.469787	245.238025	973.423420	209.543102	221.391644	847.446185	562.184546	244.445966	762.472063	554.834274	224.121140	679.533493	545.911751	280.755527	764.418995	547.156437	222.664805	538.048282	511.736431	231.816535	527.089657	416.108586	182.390404	400.525803	528.857885	199.453710	314.257273	509.196802	170.913361	232.738465	503.499024	222.786952	317.946382	476.789813	159.005554	91.814301	488.564011	201.002308	105.566437	410.900197	113.905627	41.310015	446.951715	395.407988	86.079634	505.279837	311.036866	36.207741	556.999217	328.186682	43.919705	449.508858	254.800064	855.860058	195.683311	277.547556	771.080920	203.200992	312.018484	771.922395	217.504356	253.963308	685.764552	211.172718	248.082467	531.119369	239.644172	242.229595	515.401962	327.606664	213.083195	396.164082	214.803605	229.507111	313.852297	236.301534	202.379144	226.899251	232.170378	239.641398	317.220177	276.409021	190.736412	91.025958	243.513561	225.059705	111.841929	324.686163	141.591439	37.531750	280.107814	423.169777	92.773413	249.176774	359.086826	47.643607	297.267035	345.362859	52.940861	191.993219	
1253	6.2650	181.595661	1569.105136	558.958221	209.494358	1568.288869	188.752049	148.820719	1607.601157	369.868614	270.691434	1516.815129	380.857498	248.187641	1224.617998	691.654078	398.330661	987.074119	804.690026	284.315187	1213.983554	92.640386	438.199450	975.108353	-9.562354	116.803585	1060.787615	362.834534	261.986349	1143.420033	226.933543	248.328904	1132.244560	531.063537	326.755040	1075.520822	260.175470	296.747555	1073.351889	523.552428	NaN	NaN	NaN	145.001905	1103.068099	307.438876	212.507731	976.190734	559.475555	245.287817	973.423834	209.540740	221.420880	847.459025	562.187746	244.461508	762.464435	554.835309	224.121521	679.541531	545.919883	280.787996	764.404956	547.162867	222.691718	538.042925	511.740963	231.819036	527.091592	416.098084	182.401119	400.525622	528.862402	199.477222	314.239798	509.216469	170.919335	232.744391	503.504844	222.792072	317.933678	476.771368	159.005150	91.813694	488.559849	200.974810	105.625682	410.909708	113.888543	41.282272	447.006951	395.393247	86.081751	505.270923	311.045807	36.199395	556.994972	328.186723	43.905438	449.509458	254.826834	855.859148	195.673692	277.578029	771.075421	203.197315	312.026499	771.911349	217.500329	253.989929	685.754619	211.200069	248.094710	531.123576	239.658110	242.230220	515.402128	327.594017	213.096396	396.161054	214.800805	229.502540	313.854099	236.292213	202.374493	226.905383	232.167696	239.644362	317.220947	276.435053	190.730971	91.033720	243.502354	225.081317	111.829033	324.676679	141.590763	37.535497	280.099459	423.167986	92.759921	249.171168	359.039945	47.620396	297.252468	345.357812	52.939246	191.986651	
1254	6.2700	181.635783	1569.096399	558.951394	209.533867	1568.284477	188.753289	148.850245	1607.616988	369.887764	270.730998	1516.827076	380.850215	248.199731	1224.620901	691.667850	398.338665	987.082575	804.681496	284.363132	1213.983151	92.638093	438.263480	975.119088	-9.517249	116.840677	1060.787121	362.855240	262.037950	1143.420449	226.942072	248.349670	1132.249271	531.073452	326.811179	1075.527314	260.185410	296.785358	1073.356645	523.571977	NaN	NaN	NaN	145.028318	1103.069503	307.440447	212.546182	976.185120	559.473776	245.309996	973.430518	209.541981	221.451346	847.450399	562.197162	244.507226	762.454742	554.854303	224.166433	679.530408	545.910737	280.817145	764.407725	547.189429	222.714446	538.039610	511.747762	231.843310	527.082769	416.109712	182.423946	400.534330	528.859414	199.498822	314.231514	509.215718	170.918601	232.766608	503.516371	222.809634	317.938838	476.778368	159.004685	91.813728	488.560770	200.952659	105.627748	410.912053	113.874642	41.259193	447.010734	395.406155	86.087500	505.295931	311.063004	36.201658	557.003284	328.173525	43.903997	449.514282	254.859652	855.840620	195.705710	277.613593	771.078962	203.217199	312.044263	771.916346	217.528146	254.001569	685.758232	211.201105	248.108955	531.116927	239.672152	242.252145	515.392529	327.613261	213.110617	396.174085	214.806867	229.519755	313.854276	236.313014	202.386732	226.913706	232.175581	239.639994	317.226981	276.430699	190.732707	91.029965	243.513649	225.076234	111.832184	324.683841	141.598354	37.526108	280.101625	423.166128	92.762463	249.168726	359.039445	47.620763	297.252433	345.348846	52.936130	191.968589	
1255	6.2750	181.664839	1569.117231	558.949763	209.565578	1568.296648	188.777948	148.875764	1607.617134	369.896656	270.778661	1516.829516	380.855743	248.235632	1224.608737	691.649281	398.386794	987.084458	804.695900	284.425674	1213.988319	92.625798	438.324313	975.119017	-9.496110	116.867142	1060.797886	362.866202	262.067173	1143.423521	226.945704	248.388459	1132.243863	531.087983	326.838597	1075.522395	260.208514	296.806518	1073.364426	523.584011	NaN	NaN	NaN	145.070097	1103.076541	307.456940	212.559716	976.187727	559.487631	245.370110	973.432223	209.558771	221.481351	847.470128	562.204215	244.517300	762.461901	554.854811	224.197035	679.524723	545.919484	280.838805	764.415935	547.190719	222.736450	538.045592	511.744187	231.885544	527.077327	416.133125	182.451825	400.532017	528.871203	199.504435	314.239845	509.221404	170.946479	232.757852	503.514199	222.834191	317.950805	476.789361	159.003330	91.814930	488.560421	200.989338	105.566470	410.883375	113.882102	41.266677	447.005441	395.404438	86.064777	505.291121	311.040680	36.191135	556.995406	328.189353	43.917996	449.504689	254.883808	855.847933	195.698735	277.630434	771.069013	203.247926	312.081528	771.927022	217.533818	254.034403	685.750568	211.208975	248.132097	531.129339	239.670730	242.276249	515.380089	327.611910	213.110320	396.162717	214.821690	229.530849	313.858981	236.298685	202.376884	226.916630	232.164450	239.661424	317.222579	276.427823	190.732295	91.027803	243.510856	225.089134	111.825463	324.690436	141.595644	37.537634	280.102834	423.147143	92.761180	249.174539	359.047759	47.630349	297.272800	345.351821	52.948244	191.984869	
1256	6.2800	181.711742	1569.122958	558.948879	209.636662	1568.309753	188.774499	148.934030	1607.613849	369.862990	270.827198	1516.840080	380.879554	248.279063	1224.609054	691.663915	398.403968	987.087736	804.699888	284.487086	1214.002712	92.618761	438.393075	975.121857	-9.477498	116.889354	1060.811839	362.868280	262.061911	1143.446556	226.947134	248.430818	1132.243012	531.080275	326.869188	1075.525539	260.215713	296.833841	1073.358350	523.576192	NaN	NaN	NaN	145.096762	1103.092479	307.454888	212.602643	976.188530	559.507666	245.399651	973.411483	209.563253	221.518500	847.444858	562.212642	244.546839	762.449962	554.855366	224.215376	679.532756	545.926407	280.863509	764.410176	547.195717	222.762212	538.040154	511.753764	231.894628	527.080622	416.121586	182.460481	400.537880	528.877807	199.523877	314.253465	509.233182	170.954749	232.767442	503.521988	222.814986	317.931474	476.782292	159.006241	91.824684	488.548675	200.952867	105.635270	410.899867	113.878390	41.258043	447.011776	395.411631	86.063752	505.272911	311.077367	36.186858	557.001814	328.219203	43.902403	449.514136	254.926191	855.844364	195.715584	277.687575	771.072820	203.253672	312.106842	771.915592	217.560304	254.045460	685.754239	211.212438	248.166015	531.121374	239.677592	242.289655	515.379574	327.606261	213.114059	396.174653	214.808755	229.548514	313.853811	236.325126	202.407299	226.907798	232.177982	239.670319	317.222845	276.411956	190.737896	91.030873	243.506714	225.077241	111.823339	324.678458	141.595467	37.544219	280.097958	423.169663	92.754200	249.192964	359.040194	47.620807	297.252798	345.352174	52.991349	192.007955	
1257	6.2850	181.756416	1569.127267	558.948959	209.672329	1568.322037	188.761256	148.954832	1607.619967	369.884459	270.871019	1516.837626	380.857754	248.300911	1224.638088	691.663548	398.436105	987.086486	804.697333	284.553157	1213.981740	92.627896	438.451139	975.128544	-9.483109	116.948421	1060.798421	362.870700	262.162111	1143.424185	226.970507	248.459476	1132.260037	531.098150	326.915552	1075.517864	260.211001	296.873197	1073.361647	523.591564	NaN	NaN	NaN	145.134483	1103.082484	307.477104	212.641445	976.180300	559.512510	245.446347	973.417939	209.569394	221.535094	847.454780	562.208059	244.589441	762.465248	554.878966	224.212966	679.543321	545.944578	280.890343	764.404689	547.197421	222.792854	538.039915	511.755069	231.900503	527.080934	416.115702	182.479438	400.539109	528.880441	199.530720	314.244489	509.231767	170.977849	232.757682	503.513103	222.833571	317.932030	476.794057	159.012667	91.832829	488.561211	200.961530	105.642799	410.909895	113.871857	41.257296	447.017347	395.419405	86.061660	505.274797	311.060895	36.201841	556.997203	328.189135	43.914976	449.513654	254.952724	855.839623	195.720263	277.678275	771.060984	203.259407	312.138623	771.910701	217.561881	254.065187	685.759870	211.222342	248.173280	531.123719	239.687711	242.301840	515.397152	327.624762	213.138868	396.177598	214.811982	229.552304	313.854902	236.319020	202.394549	226.919721	232.175692	239.687234	317.220952	276.436476	190.719041	91.038672	243.506178	225.078159	111.830901	324.697490	141.596240	37.539567	280.089074	423.163076	92.770803	249.193651	359.084955	47.641273	297.264943	345.359661	52.942894	191.995367	
